<svg xmlns="http://www.w3.org/2000/svg" height="20" viewBox="0 -960 960 960" width="20"><path d="M239.826-152.956q-95.992 0-163.736-66.462Q8.348-285.879 8.348-381.435q0-85.786 53.282-151.415 53.283-65.629 136.544-74.498 32.426-89.878 109.551-144.787 77.126-54.909 172.451-54.909 112.954 0 199.868 69.783 86.913 69.782 100.174 178.348 73.565 10.956 122.5 68.051 48.934 57.095 48.934 132.992 0 85.381-60.425 145.148-60.426 59.766-145.618 59.766H545.957q-47.42 0-81.188-33.769Q431-220.494 431-267.913v-121.695l-53.913 54.609-69-68.434L480-575.912l172.348 172.479-69 68.434L529-389.608v121.695h217.155q37.382 0 63.961-26.915t26.579-63.512q0-37.399-26.579-64.138-26.579-26.739-64.073-26.739h-79.652v-80.201q0-70.854-55.91-116.761-55.91-45.908-131.153-45.908-76.502 0-128.006 57.905-51.503 57.905-62.503 136.965h-49.993q-47.431 0-81.476 33.212t-34.045 81.348q0 48.135 34.124 81.439 34.124 33.305 82.397 33.305H359v114.957H239.826ZM480-416.521Z"/></svg>