<svg width="395" height="395" xmlns="http://www.w3.org/2000/svg">
 <g>
  <title>Layer 1</title>
 </g>

 <g>
  <title>Layer 2</title>
  <path d="m174.149,6.99264l0,157.69798l-38.61572,32.8474l38.61572,32.31518l0,158.15418q-11.18845,-3.80179 -21.52224,-8.74412q-10.33379,-4.94232 -19.8906,-10.41689l0,0l0,-124.24226l-35.19704,-30.11012l-5.59422,0l0,123.71001q-25.71792,-22.43051 -41.41284,-50.86785l0,0l0,-179.59624q19.03593,-33.91192 50.65885,-59.91612q31.54526,-26.00419 72.9581,-40.83116l0,0l0,-0.00001l0,0.00003l-0.00001,-0.00001zm-41.41284,143.47931l0,-79.98952q-7.22588,6.61509 -12.82011,11.25327q-5.59422,4.63818 -10.1007,9.5805q-4.42878,4.94232 -8.62446,10.41689q-4.19568,5.47458 -9.24601,13.68643l0,0l0,64.55428l6.13811,0l34.65314,-29.50184l0.00001,0l0.00002,-0.00001zm227.7318,47.06608l0,0q0,34.44417 -12.35392,65.16256q-12.27623,30.64238 -34.10926,56.34241l0,0l-29.60281,-24.63555q28.51502,-36.11694 33.56537,-79.91347l0,0l-63.24589,0l0,154.35239q-9.47911,5.47458 -19.8906,10.41689q-10.33379,4.94232 -21.52224,8.74412l0,0l0,-381.01472q32.47761,12.08968 59.5941,31.47878q27.11647,19.46513 46.46319,44.10067q19.26903,24.63556 30.1467,53.60515q10.95536,29.04561 10.95536,61.36077l-0.00001,0.00001l0.00001,0l0,-0.00001zm-105.74649,-16.95595l63.78976,0q-3.96258,-32.31518 -20.43449,-60.22025q-16.47189,-27.98113 -43.35528,-49.87939l0,0l0,110.09966l0,-0.00001l0.00001,-0.00001z" id="svg_3" stroke-width="4" fill="white" stroke="#b2b2b2"/>
 </g>
</svg>